/* XPM */
static char *ab665076758a739ca7f50facfa60187e[] = {
/* columns rows colors chars-per-pixel */
"100 100 2 1 ",
"  c None",
". c black",
/* pixels */
"                                               .........                                            ",
"                                            ...............                                         ",
"                                          ...................                                       ",
"                                         .....................                                      ",
"                                        .......................                                     ",
"                                       .........................                                    ",
"                                       .........................                                    ",
"                                      ...........................                                   ",
"                                      ...........................                                   ",
"                                     ............................                                   ",
"                                     .............................                                  ",
"                                     .............................                                  ",
"                                     .............................                                  ",
"                                     .............................                                  ",
"                                     ................   ..........                                  ",
"                                     ...    .......      ..........                                 ",
"                                     ..      .....        .........                                 ",
"                                     ..      .....    .    ........                                 ",
"                                     ..  ..   ....   ...   ........                                 ",
"                                     ..  ..   ...   ....   ........                                 ",
"                                     ..  ...  ...   ....   ........                                 ",
"                                     ..  ... .....  ....   ........                                 ",
"                                     ..  ...        ....   ........                                 ",
"                                     ... ..  .   .   ...   ........                                 ",
"                                     .....             ............                                 ",
"                                     ....                 .........                                 ",
"                                     ..                    ........                                 ",
"                                     ..                 .  ........                                 ",
"                                     .. .              .   ........                                 ",
"                                     ..  .                .........                                 ",
"                                    ....  .              ...........                                ",
"                                    .....  ..          ...  ........                                ",
"                                    .... ..           ...   ........                                ",
"                                   .....  ..        ...     .........                               ",
"                                   .....   ..     ...        .........                              ",
"                                   ....      ......          .........                              ",
"                                  .....                      ..........                             ",
"                                 ......                       ..........                            ",
"                                 ......                       ..........                            ",
"                                ......                        ...........                           ",
"                               .......                         ...........                          ",
"                              ........                         ............                         ",
"                              .......                           ............                        ",
"                             ........                           ............                        ",
"                            .........                           .... ........                       ",
"                            ........                             .... ........                      ",
"                           .........                             .............                      ",
"                          .........                               .............                     ",
"                          .... ....                               ..... ........                    ",
"                         .........                                 ..... .......                    ",
"                        ..... ....                                 ..... ........                   ",
"                        .........                                   ..... .......                   ",
"                       ..... ....                                   ..... ........                  ",
"                       ..... ....                                    .... ........                  ",
"                      ..... ....                                     ..... ........                 ",
"                      ..... ....                                     ..... ........                 ",
"                      ..... ...                                       .... ........                 ",
"                     .....  ...                                       .... ........                 ",
"                     .....  ...                                       ....  ........                ",
"                     ..... ...                                         ...  ........                ",
"                    ......  ..                                         ... .........                ",
"                    ......  ..                                         ..  .........                ",
"                    ......  ..                                              ........                ",
"                    ......  ..                                        .....  .......                ",
"                    .......  .                                       ........  .....                ",
"                    .......                                          .......... ....                ",
"                    ........                                        ............ ...                ",
"                    ........                                       ............. ...                ",
"                    ..   ....                                     .  ........... ..                 ",
"                   ..      ....                                  ..  ..............                 ",
"                  ..        ....                                 .   ..........   ...               ",
"                 ..         ......                              ..    ........      ..              ",
"                ..           ......                             .     .......        .              ",
"              ...             ......                            .       ..           .              ",
"            ...               .......                           .                    ..             ",
"           ..                  .......                          .                     .             ",
"          ..                   ........                         .                     .             ",
"          .                     ........                        .                     ..            ",
"         ..                     ........                        .                      .            ",
"         ..                      .......                       ..                      ..           ",
"         ..                       ......                       ..                       .           ",
"          .                       ......                       .                         .          ",
"          .                        ....                        .                         ..         ",
"          .                         ..                         .                          .         ",
"          .                          .                        ..                          .         ",
"          .                          ..                      ..                          ..         ",
"         ..                           ..                    ...                         ...         ",
"         ..                            ...                .....                       ....          ",
"         .                             .....           ........                      ...            ",
"         .                              ......................                     ...              ",
"         .                              ......................                   ...                ",
"         ..                             ......................                  ..                  ",
"          ....                          ......................                ...                   ",
"            .........                   ........     .........               ...                    ",
"               .........               ...                   ..             ...                     ",
"                      .....           ..                     ..            ...                      ",
"                        .....        ..                       ..          ...                       ",
"                           ...........                         ..       ...                         ",
"                              ......                            ..........                          ",
"                                                                  .....                             "
};
