#define 4ed53493749a53367c59cd9bce6762ad_width 100
#define 4ed53493749a53367c59cd9bce6762ad_height 100
static char 4ed53493749a53367c59cd9bce6762ad_bits[] = {
  0x00, 0x00, 0x00, 0x00, 0x00, 0x80, 0xFF, 0x00, 0x00, 0x00, 0x00, 0x00, 
  0x00, 0x00, 0x00, 0x00, 0x00, 0x00, 0xF0, 0xFF, 0x07, 0x00, 0x00, 0x00, 
  0x00, 0x00, 0x00, 0x00, 0x00, 0x00, 0x00, 0xFC, 0xFF, 0x1F, 0x00, 0x00, 
  0x00, 0x00, 0x00, 0x00, 0x00, 0x00, 0x00, 0x00, 0xFE, 0xFF, 0x3F, 0x00, 
  0x00, 0x00, 0x00, 0x00, 0x00, 0x00, 0x00, 0x00, 0x00, 0xFF, 0xFF, 0x7F, 
  0x00, 0x00, 0x00, 0x00, 0x00, 0x00, 0x00, 0x00, 0x00, 0x80, 0xFF, 0xFF, 
  0x7F, 0x00, 0x00, 0x00, 0x00, 0x00, 0x00, 0x00, 0x00, 0x00, 0x80, 0xFF, 
  0xFF, 0xFF, 0x00, 0x00, 0x00, 0x00, 0x00, 0x00, 0x00, 0x00, 0x00, 0xC0, 
  0xFF, 0xFF, 0xFF, 0x01, 0x00, 0x00, 0x00, 0x00, 0x00, 0x00, 0x00, 0x00, 
  0xC0, 0xFF, 0xFF, 0xFF, 0x01, 0x00, 0x00, 0x00, 0x00, 0x00, 0x00, 0x00, 
  0x00, 0xE0, 0xFF, 0xFF, 0xFF, 0x01, 0x00, 0x00, 0x00, 0x00, 0x00, 0x00, 
  0x00, 0x00, 0xE0, 0xFF, 0xFF, 0xFF, 0x03, 0x00, 0x00, 0x00, 0x00, 0x00, 
  0x00, 0x00, 0x00, 0xE0, 0xFF, 0xFF, 0xFF, 0x03, 0x00, 0x00, 0x00, 0x00, 
  0x00, 0x00, 0x00, 0x00, 0xE0, 0xFF, 0xFF, 0xFF, 0x03, 0x00, 0x00, 0x00, 
  0x00, 0x00, 0x00, 0x00, 0x00, 0xE0, 0xFF, 0xFF, 0xFF, 0x07, 0x00, 0x00, 
  0x00, 0x00, 0x00, 0x00, 0x00, 0x00, 0xF0, 0xFB, 0x1F, 0xFF, 0x03, 0x00, 
  0x00, 0x00, 0x00, 0x00, 0x00, 0x00, 0x00, 0xE0, 0xF0, 0x07, 0xFE, 0x07, 
  0x00, 0x00, 0x00, 0x00, 0x00, 0x00, 0x00, 0x00, 0x70, 0xE0, 0x07, 0xFC, 
  0x07, 0x00, 0x00, 0x00, 0x00, 0x00, 0x00, 0x00, 0x00, 0x60, 0xE0, 0x43, 
  0xF8, 0x07, 0x00, 0x00, 0x00, 0x00, 0x00, 0x00, 0x00, 0x00, 0x60, 0xC6, 
  0xE3, 0xF8, 0x07, 0x00, 0x00, 0x00, 0x00, 0x00, 0x00, 0x00, 0x00, 0x70, 
  0xCE, 0xF1, 0xF8, 0x07, 0x00, 0x00, 0x00, 0x00, 0x00, 0x00, 0x00, 0x00, 
  0x70, 0xCE, 0xF3, 0xF8, 0x07, 0x00, 0x00, 0x00, 0x00, 0x00, 0x00, 0x00, 
  0x00, 0x60, 0xEE, 0xF1, 0xF9, 0x07, 0x00, 0x00, 0x00, 0x00, 0x00, 0x00, 
  0x00, 0x00, 0x60, 0x0E, 0xF8, 0xF8, 0x07, 0x00, 0x00, 0x00, 0x00, 0x00, 
  0x00, 0x00, 0x00, 0xE0, 0x26, 0xE2, 0xFC, 0x07, 0x00, 0x00, 0x00, 0x00, 
  0x00, 0x00, 0x00, 0x00, 0xE0, 0x02, 0x80, 0xFF, 0x07, 0x00, 0x00, 0x00, 
  0x00, 0x00, 0x00, 0x00, 0x00, 0xE0, 0x01, 0x00, 0xFC, 0x07, 0x00, 0x00, 
  0x00, 0x00, 0x00, 0x00, 0x00, 0x00, 0x60, 0x00, 0x00, 0xF8, 0x07, 0x00, 
  0x00, 0x00, 0x00, 0x00, 0x00, 0x00, 0x00, 0x60, 0x00, 0x00, 0xF9, 0x07, 
  0x00, 0x00, 0x00, 0x00, 0x00, 0x00, 0x00, 0x00, 0x70, 0x00, 0x80, 0xF8, 
  0x07, 0x00, 0x00, 0x00, 0x00, 0x00, 0x00, 0x00, 0x00, 0x60, 0x03, 0x20, 
  0xFC, 0x07, 0x00, 0x00, 0x00, 0x00, 0x00, 0x00, 0x00, 0x00, 0xF0, 0x04, 
  0x00, 0xFE, 0x0F, 0x00, 0x00, 0x00, 0x00, 0x00, 0x00, 0x00, 0x00, 0xF0, 
  0x19, 0x85, 0xF7, 0x0F, 0x00, 0x00, 0x00, 0x00, 0x00, 0x00, 0x00, 0x00, 
  0xF0, 0x46, 0xC0, 0xF1, 0x1F, 0x00, 0x00, 0x00, 0x00, 0x00, 0x00, 0x00, 
  0x00, 0xF8, 0x0C, 0x70, 0xF0, 0x1F, 0x00, 0x00, 0x00, 0x00, 0x00, 0x00, 
  0x00, 0x00, 0xF8, 0x38, 0x1E, 0xF0, 0x3F, 0x00, 0x00, 0x00, 0x00, 0x00, 
  0x00, 0x00, 0x00, 0x78, 0xE0, 0x07, 0xE0, 0x3F, 0x00, 0x00, 0x00, 0x00, 
  0x00, 0x00, 0x00, 0x00, 0x7C, 0x00, 0x00, 0xE0, 0x7F, 0x00, 0x00, 0x00, 
  0x00, 0x00, 0x00, 0x00, 0x00, 0x7E, 0x00, 0x00, 0xC0, 0xFF, 0x00, 0x00, 
  0x00, 0x00, 0x00, 0x00, 0x00, 0x00, 0x7E, 0x00, 0x00, 0xC0, 0xFF, 0x00, 
  0x00, 0x00, 0x00, 0x00, 0x00, 0x00, 0x00, 0x3F, 0x00, 0x00, 0xC0, 0xFF, 
  0x01, 0x00, 0x00, 0x00, 0x00, 0x00, 0x00, 0x80, 0x3F, 0x00, 0x00, 0x80, 
  0xFF, 0x03, 0x00, 0x00, 0x00, 0x00, 0x00, 0x00, 0xC0, 0x3F, 0x00, 0x00, 
  0x80, 0xFF, 0x07, 0x00, 0x00, 0x00, 0x00, 0x00, 0x00, 0xC0, 0x1F, 0x00, 
  0x00, 0x80, 0xFF, 0x0F, 0x00, 0x00, 0x00, 0x00, 0x00, 0x00, 0xE0, 0x1F, 
  0x00, 0x00, 0x00, 0xFF, 0x0F, 0x00, 0x00, 0x00, 0x00, 0x00, 0x00, 0xF0, 
  0x1F, 0x00, 0x00, 0x00, 0xFF, 0x1F, 0x00, 0x00, 0x00, 0x00, 0x00, 0x00, 
  0xF0, 0x0F, 0x00, 0x00, 0x00, 0xDE, 0x3F, 0x00, 0x00, 0x00, 0x00, 0x00, 
  0x00, 0xF8, 0x0F, 0x00, 0x00, 0x00, 0xFE, 0x3F, 0x00, 0x00, 0x00, 0x00, 
  0x00, 0x00, 0xFC, 0x07, 0x00, 0x00, 0x00, 0xBC, 0x7F, 0x00, 0x00, 0x00, 
  0x00, 0x00, 0x00, 0xBC, 0x07, 0x00, 0x00, 0x00, 0x7C, 0xFF, 0x00, 0x00, 
  0x00, 0x00, 0x00, 0x00, 0xFE, 0x03, 0x00, 0x00, 0x00, 0xF8, 0xFF, 0x00, 
  0x00, 0x00, 0x00, 0x00, 0x00, 0xDF, 0x03, 0x00, 0x00, 0x00, 0xF8, 0xFE, 
  0x01, 0x00, 0x00, 0x00, 0x00, 0x00, 0xFF, 0x01, 0x00, 0x00, 0x00, 0xF0, 
  0xFD, 0x01, 0x00, 0x00, 0x00, 0x00, 0x80, 0xEF, 0x01, 0x00, 0x00, 0x00, 
  0xF0, 0xFD, 0x03, 0x00, 0x00, 0x00, 0x00, 0x80, 0xEF, 0x01, 0x00, 0x00, 
  0x00, 0xE0, 0xFF, 0x03, 0x00, 0x00, 0x00, 0x00, 0xC0, 0xFF, 0x00, 0x00, 
  0x00, 0x00, 0xE0, 0xFB, 0x07, 0x00, 0x00, 0x00, 0x00, 0xC0, 0xF7, 0x00, 
  0x00, 0x00, 0x00, 0xE0, 0xFB, 0x07, 0x00, 0x00, 0x00, 0x00, 0xC0, 0x77, 
  0x00, 0x00, 0x00, 0x00, 0xC0, 0xFB, 0x07, 0x00, 0x00, 0x00, 0x00, 0xE0, 
  0x77, 0x00, 0x00, 0x00, 0x00, 0xC0, 0xFB, 0x07, 0x00, 0x00, 0x00, 0x00, 
  0xE0, 0x7B, 0x00, 0x00, 0x00, 0x00, 0xC0, 0xF3, 0x0F, 0x00, 0x00, 0x00, 
  0x00, 0xE0, 0x7B, 0x00, 0x00, 0x00, 0x00, 0x80, 0xFB, 0x0F, 0x00, 0x00, 
  0x00, 0x00, 0xF0, 0x3B, 0x00, 0x00, 0x00, 0x00, 0x80, 0xFB, 0x0F, 0x00, 
  0x00, 0x00, 0x00, 0xF0, 0x33, 0x00, 0x00, 0x00, 0x00, 0x80, 0xF9, 0x0F, 
  0x00, 0x00, 0x00, 0x00, 0xF0, 0x33, 0x00, 0x00, 0x00, 0x00, 0x00, 0xF0, 
  0x0F, 0x00, 0x00, 0x00, 0x00, 0xF0, 0x37, 0x00, 0x00, 0x00, 0x00, 0xC0, 
  0xE7, 0x0F, 0x00, 0x00, 0x00, 0x00, 0xF0, 0x27, 0x00, 0x00, 0x00, 0x00, 
  0xE0, 0x9F, 0x0F, 0x00, 0x00, 0x00, 0x00, 0xF0, 0x07, 0x00, 0x00, 0x00, 
  0x00, 0xF0, 0x7F, 0x0F, 0x00, 0x00, 0x00, 0x00, 0xF0, 0x0F, 0x00, 0x00, 
  0x00, 0x00, 0xF0, 0xFF, 0x0E, 0x00, 0x00, 0x00, 0x00, 0xF0, 0x1F, 0x00, 
  0x00, 0x00, 0x00, 0xF8, 0xFF, 0x0E, 0x00, 0x00, 0x00, 0x00, 0x30, 0x1E, 
  0x00, 0x00, 0x00, 0x00, 0xEC, 0xFF, 0x0F, 0x00, 0x00, 0x00, 0x00, 0x18, 
  0x78, 0x00, 0x00, 0x00, 0x00, 0xE6, 0xFF, 0x07, 0x00, 0x00, 0x00, 0x00, 
  0x0C, 0xF0, 0x00, 0x00, 0x00, 0x00, 0xE2, 0xFF, 0x1C, 0x00, 0x00, 0x00, 
  0x00, 0x06, 0xF0, 0x03, 0x00, 0x00, 0x00, 0xC3, 0x3F, 0x30, 0x00, 0x00, 
  0x00, 0x00, 0x03, 0xE0, 0x07, 0x00, 0x00, 0x00, 0xC1, 0x1F, 0x20, 0x00, 
  0x00, 0x00, 0xC0, 0x01, 0xC0, 0x0F, 0x00, 0x00, 0x00, 0x01, 0x01, 0x20, 
  0x00, 0x00, 0x00, 0x70, 0x00, 0xC0, 0x1F, 0x00, 0x00, 0x00, 0x01, 0x00, 
  0x60, 0x00, 0x00, 0x00, 0x18, 0x00, 0x80, 0x3F, 0x00, 0x00, 0x00, 0x01, 
  0x00, 0x40, 0x00, 0x00, 0x00, 0x0C, 0x00, 0x80, 0x7F, 0x00, 0x00, 0x80, 
  0x01, 0x00, 0x40, 0x00, 0x00, 0x00, 0x06, 0x00, 0x00, 0xFF, 0x00, 0x00, 
  0x00, 0x01, 0x00, 0xC0, 0x00, 0x00, 0x00, 0x04, 0x00, 0x00, 0xFF, 0x00, 
  0x00, 0x00, 0x01, 0x00, 0x80, 0x00, 0x00, 0x00, 0x06, 0x00, 0x00, 0xFE, 
  0x00, 0x00, 0x80, 0x01, 0x00, 0x80, 0x01, 0x00, 0x00, 0x04, 0x00, 0x00, 
  0xFC, 0x00, 0x00, 0x80, 0x01, 0x00, 0x00, 0x01, 0x00, 0x00, 0x06, 0x00, 
  0x00, 0xFC, 0x00, 0x00, 0x80, 0x00, 0x00, 0x00, 0x02, 0x00, 0x00, 0x04, 
  0x00, 0x00, 0x38, 0x00, 0x00, 0x80, 0x00, 0x00, 0x00, 0x06, 0x00, 0x00, 
  0x04, 0x00, 0x00, 0x30, 0x00, 0x00, 0x80, 0x00, 0x00, 0x00, 0x04, 0x00, 
  0x00, 0x04, 0x00, 0x00, 0x60, 0x00, 0x00, 0xC0, 0x00, 0x00, 0x00, 0x04, 
  0x00, 0x00, 0x06, 0x00, 0x00, 0x40, 0x00, 0x00, 0x60, 0x00, 0x00, 0x00, 
  0x06, 0x00, 0x00, 0x04, 0x00, 0x00, 0xC0, 0x00, 0x00, 0x70, 0x00, 0x00, 
  0x00, 0x07, 0x00, 0x00, 0x06, 0x00, 0x00, 0x80, 0x03, 0x00, 0x7C, 0x00, 
  0x00, 0xC0, 0x01, 0x00, 0x00, 0x02, 0x00, 0x00, 0x80, 0x0F, 0x80, 0x7F, 
  0x00, 0x00, 0xF0, 0x00, 0x00, 0x00, 0x06, 0x00, 0x00, 0x00, 0xFF, 0xFF, 
  0x7F, 0x00, 0x00, 0x3C, 0x00, 0x00, 0x00, 0x02, 0x00, 0x00, 0x00, 0xFF, 
  0xFF, 0x3F, 0x00, 0x00, 0x0E, 0x00, 0x00, 0x00, 0x06, 0x00, 0x00, 0x00, 
  0xFF, 0xFF, 0x3F, 0x00, 0x00, 0x03, 0x00, 0x00, 0x00, 0x7C, 0x00, 0x00, 
  0x00, 0xFF, 0xFF, 0x3F, 0x00, 0xC0, 0x01, 0x00, 0x00, 0x00, 0xF8, 0x1F, 
  0x00, 0x00, 0xFF, 0xE2, 0x3F, 0x00, 0x60, 0x00, 0x00, 0x00, 0x00, 0x80, 
  0xFF, 0x00, 0x80, 0x07, 0x00, 0x60, 0x00, 0x70, 0x00, 0x00, 0x00, 0x00, 
  0x00, 0xD0, 0x07, 0xC0, 0x00, 0x00, 0x60, 0x00, 0x18, 0x00, 0x00, 0x00, 
  0x00, 0x00, 0x00, 0x1F, 0x70, 0x00, 0x00, 0xC0, 0x00, 0x1C, 0x00, 0x00, 
  0x00, 0x00, 0x00, 0x00, 0xF8, 0x3F, 0x00, 0x00, 0x80, 0x01, 0x07, 0x00, 
  0x00, 0x00, 0x00, 0x00, 0x00, 0xC0, 0x0F, 0x00, 0x00, 0x00, 0xFF, 0x03, 
  0x00, 0x00, 0x00, 0x00, 0x00, 0x00, 0x00, 0x00, 0x00, 0x00, 0x00, 0xFC, 
  0x00, 0x00, 0x00, 0x00, };
